<svg width="639" height="376" viewBox="0 0 639 376" fill="none" xmlns="http://www.w3.org/2000/svg">
<rect width="639" height="376" fill="white"/>
<g clip-path="url(#paint0_diamond_3_2_clip_path)" data-figma-skip-parse="true"><g transform="matrix(0.298 0 0 0.300365 320 169.509)"><rect x="0" y="0" width="1007.31" height="218.66" fill="url(#paint0_diamond_3_2)" opacity="1" shape-rendering="crispEdges"/><rect x="0" y="0" width="1007.31" height="218.66" transform="scale(1 -1)" fill="url(#paint0_diamond_3_2)" opacity="1" shape-rendering="crispEdges"/><rect x="0" y="0" width="1007.31" height="218.66" transform="scale(-1 1)" fill="url(#paint0_diamond_3_2)" opacity="1" shape-rendering="crispEdges"/><rect x="0" y="0" width="1007.31" height="218.66" transform="scale(-1)" fill="url(#paint0_diamond_3_2)" opacity="1" shape-rendering="crispEdges"/></g></g><path d="M36.775 208.009H24.5986L51.9584 131.981H65.2114L92.5712 208.009H80.3948L58.9005 145.791H58.3065L36.775 208.009ZM38.8168 178.237H78.3159V187.889H38.8168V178.237ZM103.55 208.009V131.981H115.021V198.135H149.472V208.009H103.55ZM251.589 131.981V208.009H241.046L202.4 152.25H201.695V208.009H190.224V131.981H200.841L239.523 187.814H240.229V131.981H251.589ZM274.744 208.009H262.568L289.927 131.981H303.18L330.54 208.009H318.364L296.87 145.791H296.276L274.744 208.009ZM276.786 178.237H316.285V187.889H276.786V178.237ZM366.132 208.009H341.519V131.981H366.912C374.361 131.981 380.759 133.503 386.104 136.547C391.45 139.567 395.546 143.91 398.392 149.578C401.263 155.22 402.699 161.989 402.699 169.884C402.699 177.804 401.251 184.609 398.355 190.302C395.484 195.994 391.326 200.374 385.882 203.443C380.437 206.487 373.854 208.009 366.132 208.009ZM352.991 197.986H365.501C371.292 197.986 376.106 196.897 379.942 194.719C383.778 192.517 386.649 189.336 388.555 185.179C390.46 180.996 391.413 175.898 391.413 169.884C391.413 163.919 390.46 158.858 388.555 154.701C386.674 150.543 383.865 147.387 380.128 145.234C376.391 143.081 371.75 142.004 366.206 142.004H352.991V197.986ZM446.513 131.981H457.947V185.884C457.947 190.76 456.982 194.93 455.052 198.395C453.146 201.859 450.461 204.508 446.996 206.339C443.531 208.146 439.472 209.049 434.819 209.049C430.538 209.049 426.689 208.269 423.274 206.71C419.883 205.151 417.198 202.886 415.218 199.917C413.263 196.922 412.286 193.284 412.286 189.002H423.682C423.682 191.106 424.165 192.925 425.13 194.459C426.12 195.994 427.469 197.194 429.177 198.06C430.909 198.902 432.889 199.323 435.116 199.323C437.542 199.323 439.596 198.815 441.279 197.801C442.987 196.761 444.286 195.239 445.177 193.234C446.068 191.23 446.513 188.78 446.513 185.884V131.981ZM481.066 208.009H468.889L496.249 131.981H509.502L536.862 208.009H524.685L503.191 145.791H502.597L481.066 208.009ZM483.107 178.237H522.606V187.889H483.107V178.237ZM547.841 208.009V131.981H559.312V165.021H597.215V131.981H608.723V208.009H597.215V174.858H559.312V208.009H547.841Z" data-figma-gradient-fill="{&#34;type&#34;:&#34;GRADIENT_DIAMOND&#34;,&#34;stops&#34;:[{&#34;color&#34;:{&#34;r&#34;:0.0,&#34;g&#34;:0.059679429978132248,&#34;b&#34;:0.18846145272254944,&#34;a&#34;:1.0},&#34;position&#34;:0.28846153616905212},{&#34;color&#34;:{&#34;r&#34;:0.022632982581853867,&#34;g&#34;:0.40136086940765381,&#34;b&#34;:0.65384614467620850,&#34;a&#34;:1.0},&#34;position&#34;:1.0}],&#34;stopsVar&#34;:[{&#34;color&#34;:{&#34;r&#34;:0.0,&#34;g&#34;:0.059679429978132248,&#34;b&#34;:0.18846145272254944,&#34;a&#34;:1.0},&#34;position&#34;:0.28846153616905212},{&#34;color&#34;:{&#34;r&#34;:0.022632982581853867,&#34;g&#34;:0.40136086940765381,&#34;b&#34;:0.65384614467620850,&#34;a&#34;:1.0},&#34;position&#34;:1.0}],&#34;transform&#34;:{&#34;m00&#34;:596.0,&#34;m01&#34;:0.0,&#34;m02&#34;:22.0,&#34;m10&#34;:0.0,&#34;m11&#34;:600.73016357421875,&#34;m12&#34;:-130.85562133789062},&#34;opacity&#34;:1.0,&#34;blendMode&#34;:&#34;NORMAL&#34;,&#34;visible&#34;:true}"/>
<path d="M131.39 249.3C131.39 251.973 130.907 254.283 129.942 256.23C128.977 258.177 127.653 259.678 125.97 260.734C124.287 261.79 122.365 262.318 120.203 262.318C118.042 262.318 116.12 261.79 114.437 260.734C112.754 259.678 111.43 258.177 110.465 256.23C109.499 254.283 109.017 251.973 109.017 249.3C109.017 246.627 109.499 244.317 110.465 242.371C111.43 240.424 112.754 238.922 114.437 237.866C116.12 236.81 118.042 236.282 120.203 236.282C122.365 236.282 124.287 236.81 125.97 237.866C127.653 238.922 128.977 240.424 129.942 242.371C130.907 244.317 131.39 246.627 131.39 249.3ZM128.42 249.3C128.42 247.106 128.053 245.254 127.319 243.744C126.593 242.234 125.607 241.092 124.361 240.316C123.124 239.541 121.738 239.153 120.203 239.153C118.669 239.153 117.279 239.541 116.033 240.316C114.796 241.092 113.81 242.234 113.076 243.744C112.35 245.254 111.987 247.106 111.987 249.3C111.987 251.495 112.35 253.347 113.076 254.856C113.81 256.366 114.796 257.509 116.033 258.284C117.279 259.06 118.669 259.447 120.203 259.447C121.738 259.447 123.124 259.06 124.361 258.284C125.607 257.509 126.593 256.366 127.319 254.856C128.053 253.347 128.42 251.495 128.42 249.3ZM136.154 261.972V242.965H138.975V245.835H139.173C139.52 244.895 140.147 244.132 141.054 243.546C141.962 242.96 142.985 242.668 144.123 242.668C144.337 242.668 144.606 242.672 144.927 242.68C145.249 242.688 145.492 242.701 145.657 242.717V245.687C145.558 245.662 145.332 245.625 144.977 245.576C144.63 245.518 144.263 245.489 143.875 245.489C142.952 245.489 142.127 245.683 141.401 246.071C140.683 246.45 140.114 246.978 139.693 247.654C139.28 248.323 139.074 249.086 139.074 249.944V261.972H136.154ZM158.576 242.965V245.439H148.726V242.965H158.576ZM151.597 238.411H154.517V256.527C154.517 257.352 154.637 257.971 154.876 258.383C155.124 258.787 155.437 259.06 155.817 259.2C156.204 259.332 156.613 259.398 157.042 259.398C157.364 259.398 157.628 259.381 157.834 259.348C158.04 259.307 158.205 259.274 158.329 259.249L158.923 261.873C158.725 261.947 158.448 262.021 158.094 262.095C157.739 262.178 157.289 262.219 156.745 262.219C155.92 262.219 155.111 262.042 154.319 261.687C153.536 261.332 152.884 260.792 152.364 260.066C151.853 259.34 151.597 258.424 151.597 257.319V238.411ZM166.298 250.538V261.972H163.378V236.629H166.298V245.934H166.545C166.991 244.953 167.659 244.173 168.55 243.596C169.449 243.01 170.645 242.717 172.139 242.717C173.434 242.717 174.568 242.977 175.542 243.497C176.515 244.008 177.27 244.796 177.806 245.86C178.351 246.916 178.623 248.261 178.623 249.894V261.972H175.702V250.092C175.702 248.583 175.311 247.415 174.527 246.59C173.751 245.757 172.675 245.34 171.297 245.34C170.34 245.34 169.482 245.543 168.723 245.947C167.973 246.351 167.379 246.941 166.941 247.716C166.512 248.492 166.298 249.432 166.298 250.538ZM191.687 262.368C189.971 262.368 188.466 261.959 187.17 261.143C185.883 260.326 184.877 259.183 184.151 257.715C183.433 256.246 183.074 254.53 183.074 252.567C183.074 250.587 183.433 248.859 184.151 247.382C184.877 245.906 185.883 244.759 187.17 243.942C188.466 243.125 189.971 242.717 191.687 242.717C193.403 242.717 194.904 243.125 196.191 243.942C197.487 244.759 198.493 245.906 199.211 247.382C199.937 248.859 200.3 250.587 200.3 252.567C200.3 254.53 199.937 256.246 199.211 257.715C198.493 259.183 197.487 260.326 196.191 261.143C194.904 261.959 193.403 262.368 191.687 262.368ZM191.687 259.744C192.991 259.744 194.063 259.41 194.904 258.742C195.746 258.074 196.369 257.195 196.773 256.106C197.177 255.017 197.379 253.838 197.379 252.567C197.379 251.297 197.177 250.113 196.773 249.016C196.369 247.918 195.746 247.032 194.904 246.355C194.063 245.679 192.991 245.34 191.687 245.34C190.384 245.34 189.311 245.679 188.47 246.355C187.628 247.032 187.005 247.918 186.601 249.016C186.197 250.113 185.995 251.297 185.995 252.567C185.995 253.838 186.197 255.017 186.601 256.106C187.005 257.195 187.628 258.074 188.47 258.742C189.311 259.41 190.384 259.744 191.687 259.744ZM204.758 269.099V242.965H207.579V245.984H207.925C208.14 245.654 208.437 245.233 208.816 244.722C209.204 244.202 209.757 243.74 210.475 243.336C211.2 242.923 212.182 242.717 213.42 242.717C215.02 242.717 216.431 243.117 217.652 243.917C218.873 244.718 219.825 245.852 220.51 247.32C221.195 248.789 221.537 250.521 221.537 252.518C221.537 254.53 221.195 256.275 220.51 257.752C219.825 259.22 218.877 260.359 217.664 261.167C216.451 261.967 215.053 262.368 213.469 262.368C212.248 262.368 211.271 262.165 210.536 261.761C209.802 261.349 209.237 260.883 208.841 260.363C208.445 259.835 208.14 259.398 207.925 259.051H207.678V269.099H204.758ZM207.628 252.468C207.628 253.904 207.839 255.17 208.259 256.267C208.68 257.356 209.295 258.21 210.103 258.829C210.912 259.439 211.902 259.744 213.073 259.744C214.294 259.744 215.313 259.422 216.13 258.779C216.955 258.127 217.573 257.253 217.986 256.156C218.406 255.05 218.617 253.821 218.617 252.468C218.617 251.132 218.411 249.927 217.998 248.855C217.594 247.774 216.979 246.92 216.154 246.293C215.338 245.658 214.311 245.34 213.073 245.34C211.885 245.34 210.887 245.642 210.079 246.244C209.27 246.838 208.66 247.671 208.247 248.743C207.835 249.808 207.628 251.049 207.628 252.468ZM233.961 262.368C232.13 262.368 230.55 261.963 229.222 261.155C227.902 260.338 226.883 259.2 226.165 257.74C225.456 256.271 225.101 254.563 225.101 252.617C225.101 250.67 225.456 248.954 226.165 247.469C226.883 245.976 227.881 244.812 229.16 243.979C230.447 243.138 231.948 242.717 233.664 242.717C234.654 242.717 235.632 242.882 236.597 243.212C237.562 243.542 238.441 244.078 239.233 244.821C240.025 245.555 240.656 246.528 241.126 247.741C241.596 248.954 241.831 250.447 241.831 252.221V253.458H227.18V250.934H238.861C238.861 249.861 238.647 248.904 238.218 248.063C237.797 247.221 237.195 246.557 236.411 246.071C235.636 245.584 234.72 245.34 233.664 245.34C232.501 245.34 231.494 245.629 230.645 246.207C229.803 246.776 229.156 247.518 228.702 248.434C228.248 249.35 228.021 250.331 228.021 251.379V253.062C228.021 254.497 228.269 255.714 228.764 256.712C229.267 257.702 229.964 258.457 230.855 258.977C231.746 259.488 232.781 259.744 233.961 259.744C234.728 259.744 235.421 259.637 236.04 259.422C236.667 259.2 237.207 258.87 237.661 258.433C238.115 257.987 238.465 257.434 238.713 256.774L241.534 257.566C241.237 258.523 240.738 259.365 240.037 260.091C239.336 260.808 238.47 261.369 237.438 261.774C236.407 262.17 235.248 262.368 233.961 262.368ZM232.179 240.391L235.199 234.649H238.614L234.753 240.391H232.179ZM253.451 262.368C251.867 262.368 250.469 261.967 249.256 261.167C248.043 260.359 247.094 259.22 246.41 257.752C245.725 256.275 245.383 254.53 245.383 252.518C245.383 250.521 245.725 248.789 246.41 247.32C247.094 245.852 248.047 244.718 249.268 243.917C250.489 243.117 251.9 242.717 253.5 242.717C254.738 242.717 255.715 242.923 256.433 243.336C257.159 243.74 257.712 244.202 258.091 244.722C258.479 245.233 258.78 245.654 258.995 245.984H259.242V236.629H262.162V261.972H259.341V259.051H258.995C258.78 259.398 258.475 259.835 258.079 260.363C257.683 260.883 257.118 261.349 256.384 261.761C255.649 262.165 254.672 262.368 253.451 262.368ZM253.847 259.744C255.018 259.744 256.008 259.439 256.817 258.829C257.625 258.21 258.24 257.356 258.66 256.267C259.081 255.17 259.292 253.904 259.292 252.468C259.292 251.049 259.085 249.808 258.673 248.743C258.26 247.671 257.65 246.838 256.841 246.244C256.033 245.642 255.035 245.34 253.847 245.34C252.609 245.34 251.578 245.658 250.753 246.293C249.936 246.92 249.322 247.774 248.909 248.855C248.505 249.927 248.303 251.132 248.303 252.468C248.303 253.821 248.509 255.05 248.922 256.156C249.343 257.253 249.961 258.127 250.778 258.779C251.603 259.422 252.626 259.744 253.847 259.744ZM267.916 261.972V242.965H270.837V261.972H267.916ZM269.401 239.797C268.832 239.797 268.341 239.603 267.929 239.215C267.525 238.827 267.323 238.361 267.323 237.817C267.323 237.272 267.525 236.806 267.929 236.418C268.341 236.031 268.832 235.837 269.401 235.837C269.971 235.837 270.457 236.031 270.862 236.418C271.274 236.806 271.48 237.272 271.48 237.817C271.48 238.361 271.274 238.827 270.862 239.215C270.457 239.603 269.971 239.797 269.401 239.797ZM284.155 262.368C282.323 262.368 280.744 261.963 279.415 261.155C278.095 260.338 277.077 259.2 276.359 257.74C275.649 256.271 275.295 254.563 275.295 252.617C275.295 250.67 275.649 248.954 276.359 247.469C277.077 245.976 278.075 244.812 279.354 243.979C280.64 243.138 282.142 242.717 283.858 242.717C284.848 242.717 285.825 242.882 286.791 243.212C287.756 243.542 288.634 244.078 289.426 244.821C290.218 245.555 290.849 246.528 291.32 247.741C291.79 248.954 292.025 250.447 292.025 252.221V253.458H277.374V250.934H289.055C289.055 249.861 288.841 248.904 288.412 248.063C287.991 247.221 287.389 246.557 286.605 246.071C285.829 245.584 284.914 245.34 283.858 245.34C282.695 245.34 281.688 245.629 280.838 246.207C279.997 246.776 279.349 247.518 278.896 248.434C278.442 249.35 278.215 250.331 278.215 251.379V253.062C278.215 254.497 278.463 255.714 278.958 256.712C279.461 257.702 280.158 258.457 281.049 258.977C281.94 259.488 282.975 259.744 284.155 259.744C284.922 259.744 285.615 259.637 286.234 259.422C286.861 259.2 287.401 258.87 287.855 258.433C288.308 257.987 288.659 257.434 288.907 256.774L291.728 257.566C291.431 258.523 290.932 259.365 290.231 260.091C289.529 260.808 288.663 261.369 287.632 261.774C286.601 262.17 285.442 262.368 284.155 262.368ZM314.484 261.972H306.664V236.629H314.831C317.289 236.629 319.393 237.136 321.142 238.151C322.891 239.157 324.231 240.605 325.164 242.494C326.096 244.375 326.562 246.627 326.562 249.251C326.562 251.891 326.092 254.163 325.151 256.069C324.211 257.966 322.841 259.427 321.043 260.45C319.244 261.464 317.058 261.972 314.484 261.972ZM309.733 259.249H314.286C316.382 259.249 318.118 258.845 319.496 258.037C320.874 257.228 321.901 256.077 322.577 254.584C323.254 253.091 323.592 251.313 323.592 249.251C323.592 247.205 323.258 245.444 322.59 243.967C321.921 242.482 320.923 241.343 319.595 240.552C318.267 239.751 316.613 239.351 314.633 239.351H309.733V259.249ZM339.283 262.368C337.451 262.368 335.872 261.963 334.543 261.155C333.223 260.338 332.205 259.2 331.487 257.74C330.777 256.271 330.423 254.563 330.423 252.617C330.423 250.67 330.777 248.954 331.487 247.469C332.205 245.976 333.203 244.812 334.481 243.979C335.768 243.138 337.27 242.717 338.986 242.717C339.976 242.717 340.953 242.882 341.919 243.212C342.884 243.542 343.762 244.078 344.554 244.821C345.346 245.555 345.977 246.528 346.448 247.741C346.918 248.954 347.153 250.447 347.153 252.221V253.458H332.502V250.934H344.183C344.183 249.861 343.969 248.904 343.54 248.063C343.119 247.221 342.517 246.557 341.733 246.071C340.957 245.584 340.042 245.34 338.986 245.34C337.823 245.34 336.816 245.629 335.966 246.207C335.125 246.776 334.477 247.518 334.024 248.434C333.57 249.35 333.343 250.331 333.343 251.379V253.062C333.343 254.497 333.591 255.714 334.086 256.712C334.589 257.702 335.286 258.457 336.177 258.977C337.068 259.488 338.103 259.744 339.283 259.744C340.05 259.744 340.743 259.637 341.362 259.422C341.989 259.2 342.529 258.87 342.983 258.433C343.436 257.987 343.787 257.434 344.035 256.774L346.856 257.566C346.559 258.523 346.06 259.365 345.359 260.091C344.657 260.808 343.791 261.369 342.76 261.774C341.729 262.17 340.57 262.368 339.283 262.368ZM354.516 250.538V261.972H351.595V242.965H354.417V245.934H354.664C355.11 244.969 355.786 244.194 356.694 243.608C357.601 243.014 358.772 242.717 360.208 242.717C361.495 242.717 362.621 242.981 363.586 243.509C364.551 244.029 365.302 244.821 365.838 245.885C366.374 246.941 366.643 248.277 366.643 249.894V261.972H363.722V250.092C363.722 248.599 363.334 247.436 362.559 246.603C361.784 245.761 360.719 245.34 359.366 245.34C358.434 245.34 357.601 245.543 356.867 245.947C356.141 246.351 355.567 246.941 355.147 247.716C354.726 248.492 354.516 249.432 354.516 250.538ZM380.245 242.965V245.439H370.395V242.965H380.245ZM373.266 238.411H376.186V256.527C376.186 257.352 376.306 257.971 376.545 258.383C376.793 258.787 377.106 259.06 377.486 259.2C377.873 259.332 378.282 259.398 378.711 259.398C379.032 259.398 379.296 259.381 379.503 259.348C379.709 259.307 379.874 259.274 379.998 259.249L380.592 261.873C380.394 261.947 380.117 262.021 379.763 262.095C379.408 262.178 378.958 262.219 378.414 262.219C377.589 262.219 376.78 262.042 375.988 261.687C375.205 261.332 374.553 260.792 374.033 260.066C373.522 259.34 373.266 258.424 373.266 257.319V238.411ZM392.155 262.368C390.44 262.368 388.934 261.959 387.639 261.143C386.352 260.326 385.345 259.183 384.619 257.715C383.902 256.246 383.543 254.53 383.543 252.567C383.543 250.587 383.902 248.859 384.619 247.382C385.345 245.906 386.352 244.759 387.639 243.942C388.934 243.125 390.44 242.717 392.155 242.717C393.871 242.717 395.373 243.125 396.66 243.942C397.955 244.759 398.961 245.906 399.679 247.382C400.405 248.859 400.768 250.587 400.768 252.567C400.768 254.53 400.405 256.246 399.679 257.715C398.961 259.183 397.955 260.326 396.66 261.143C395.373 261.959 393.871 262.368 392.155 262.368ZM392.155 259.744C393.459 259.744 394.531 259.41 395.373 258.742C396.214 258.074 396.837 257.195 397.241 256.106C397.646 255.017 397.848 253.838 397.848 252.567C397.848 251.297 397.646 250.113 397.241 249.016C396.837 247.918 396.214 247.032 395.373 246.355C394.531 245.679 393.459 245.34 392.155 245.34C390.852 245.34 389.78 245.679 388.938 246.355C388.097 247.032 387.474 247.918 387.07 249.016C386.665 250.113 386.463 251.297 386.463 252.567C386.463 253.838 386.665 255.017 387.07 256.106C387.474 257.195 388.097 258.074 388.938 258.742C389.78 259.41 390.852 259.744 392.155 259.744ZM416.115 249.746V252.468H405.028V249.746H416.115ZM421.65 261.972V236.629H436.846V239.351H424.719V247.914H435.707V250.637H424.719V261.972H421.65ZM447.299 262.417C446.094 262.417 445.001 262.19 444.02 261.737C443.038 261.275 442.258 260.61 441.681 259.744C441.103 258.87 440.815 257.814 440.815 256.576C440.815 255.487 441.029 254.605 441.458 253.928C441.887 253.244 442.461 252.707 443.178 252.32C443.896 251.932 444.688 251.643 445.554 251.453C446.429 251.255 447.307 251.099 448.19 250.983C449.345 250.835 450.281 250.723 450.999 250.649C451.725 250.567 452.253 250.43 452.583 250.241C452.921 250.051 453.09 249.721 453.09 249.251V249.152C453.09 247.931 452.756 246.982 452.088 246.306C451.428 245.629 450.426 245.291 449.081 245.291C447.687 245.291 446.594 245.596 445.802 246.207C445.01 246.817 444.453 247.469 444.131 248.162L441.359 247.172C441.854 246.017 442.514 245.118 443.339 244.474C444.172 243.822 445.08 243.369 446.061 243.113C447.051 242.849 448.025 242.717 448.982 242.717C449.592 242.717 450.294 242.791 451.086 242.94C451.886 243.08 452.657 243.373 453.4 243.818C454.15 244.264 454.773 244.936 455.268 245.835C455.763 246.735 456.011 247.939 456.011 249.449V261.972H453.09V259.398H452.942C452.744 259.81 452.414 260.252 451.952 260.722C451.49 261.192 450.875 261.592 450.108 261.922C449.341 262.252 448.404 262.417 447.299 262.417ZM447.744 259.794C448.899 259.794 449.873 259.567 450.665 259.113C451.465 258.659 452.067 258.074 452.471 257.356C452.884 256.638 453.09 255.883 453.09 255.091V252.419C452.966 252.567 452.694 252.703 452.273 252.827C451.861 252.942 451.382 253.046 450.838 253.136C450.302 253.219 449.778 253.293 449.266 253.359C448.763 253.417 448.355 253.466 448.041 253.508C447.282 253.607 446.573 253.767 445.913 253.99C445.261 254.205 444.733 254.53 444.329 254.968C443.933 255.397 443.735 255.982 443.735 256.725C443.735 257.74 444.11 258.507 444.861 259.027C445.62 259.538 446.581 259.794 447.744 259.794ZM469.062 262.368C467.28 262.368 465.746 261.947 464.459 261.105C463.172 260.264 462.182 259.105 461.489 257.628C460.796 256.152 460.45 254.464 460.45 252.567C460.45 250.637 460.805 248.933 461.514 247.456C462.232 245.972 463.23 244.812 464.509 243.979C465.796 243.138 467.297 242.717 469.013 242.717C470.349 242.717 471.554 242.965 472.626 243.46C473.699 243.954 474.577 244.647 475.262 245.538C475.947 246.429 476.372 247.469 476.537 248.657H473.616C473.393 247.791 472.898 247.023 472.131 246.355C471.372 245.679 470.349 245.34 469.062 245.34C467.924 245.34 466.926 245.637 466.068 246.231C465.218 246.817 464.554 247.646 464.076 248.719C463.605 249.783 463.37 251.033 463.37 252.468C463.37 253.937 463.601 255.215 464.063 256.304C464.533 257.393 465.193 258.239 466.043 258.841C466.901 259.443 467.907 259.744 469.062 259.744C469.821 259.744 470.51 259.612 471.129 259.348C471.748 259.084 472.272 258.705 472.7 258.21C473.129 257.715 473.435 257.121 473.616 256.428H476.537C476.372 257.55 475.963 258.56 475.311 259.46C474.668 260.351 473.814 261.06 472.75 261.588C471.694 262.108 470.465 262.368 469.062 262.368ZM480.806 261.972V242.965H483.726V261.972H480.806ZM482.291 239.797C481.721 239.797 481.231 239.603 480.818 239.215C480.414 238.827 480.212 238.361 480.212 237.817C480.212 237.272 480.414 236.806 480.818 236.418C481.231 236.031 481.721 235.837 482.291 235.837C482.86 235.837 483.347 236.031 483.751 236.418C484.163 236.806 484.37 237.272 484.37 237.817C484.37 238.361 484.163 238.827 483.751 239.215C483.347 239.603 482.86 239.797 482.291 239.797ZM494.668 262.417C493.464 262.417 492.371 262.19 491.389 261.737C490.407 261.275 489.628 260.61 489.05 259.744C488.473 258.87 488.184 257.814 488.184 256.576C488.184 255.487 488.398 254.605 488.827 253.928C489.256 253.244 489.83 252.707 490.547 252.32C491.265 251.932 492.057 251.643 492.923 251.453C493.798 251.255 494.676 251.099 495.559 250.983C496.714 250.835 497.65 250.723 498.368 250.649C499.094 250.567 499.622 250.43 499.952 250.241C500.29 250.051 500.459 249.721 500.459 249.251V249.152C500.459 247.931 500.125 246.982 499.457 246.306C498.797 245.629 497.795 245.291 496.45 245.291C495.056 245.291 493.963 245.596 493.171 246.207C492.379 246.817 491.822 247.469 491.5 248.162L488.728 247.172C489.223 246.017 489.883 245.118 490.708 244.474C491.542 243.822 492.449 243.369 493.431 243.113C494.421 242.849 495.394 242.717 496.351 242.717C496.962 242.717 497.663 242.791 498.455 242.94C499.255 243.08 500.026 243.373 500.769 243.818C501.519 244.264 502.142 244.936 502.637 245.835C503.132 246.735 503.38 247.939 503.38 249.449V261.972H500.459V259.398H500.311C500.113 259.81 499.783 260.252 499.321 260.722C498.859 261.192 498.244 261.592 497.477 261.922C496.71 262.252 495.774 262.417 494.668 262.417ZM495.114 259.794C496.269 259.794 497.242 259.567 498.034 259.113C498.834 258.659 499.436 258.074 499.841 257.356C500.253 256.638 500.459 255.883 500.459 255.091V252.419C500.336 252.567 500.063 252.703 499.643 252.827C499.23 252.942 498.752 253.046 498.207 253.136C497.671 253.219 497.147 253.293 496.636 253.359C496.132 253.417 495.724 253.466 495.411 253.508C494.652 253.607 493.942 253.767 493.282 253.99C492.63 254.205 492.103 254.53 491.698 254.968C491.302 255.397 491.104 255.982 491.104 256.725C491.104 257.74 491.48 258.507 492.23 259.027C492.989 259.538 493.95 259.794 495.114 259.794ZM511.63 236.629V261.972H508.71V236.629H511.63ZM524.948 262.368C523.117 262.368 521.537 261.963 520.209 261.155C518.889 260.338 517.87 259.2 517.152 257.74C516.443 256.271 516.088 254.563 516.088 252.617C516.088 250.67 516.443 248.954 517.152 247.469C517.87 245.976 518.868 244.812 520.147 243.979C521.434 243.138 522.935 242.717 524.651 242.717C525.641 242.717 526.619 242.882 527.584 243.212C528.549 243.542 529.428 244.078 530.22 244.821C531.012 245.555 531.643 246.528 532.113 247.741C532.583 248.954 532.818 250.447 532.818 252.221V253.458H518.167V250.934H529.849C529.849 249.861 529.634 248.904 529.205 248.063C528.784 247.221 528.182 246.557 527.398 246.071C526.623 245.584 525.707 245.34 524.651 245.34C523.488 245.34 522.482 245.629 521.632 246.207C520.791 246.776 520.143 247.518 519.689 248.434C519.235 249.35 519.009 250.331 519.009 251.379V253.062C519.009 254.497 519.256 255.714 519.751 256.712C520.254 257.702 520.951 258.457 521.842 258.977C522.733 259.488 523.769 259.744 524.948 259.744C525.716 259.744 526.409 259.637 527.027 259.422C527.654 259.2 528.195 258.87 528.648 258.433C529.102 257.987 529.453 257.434 529.7 256.774L532.521 257.566C532.224 258.523 531.725 259.365 531.024 260.091C530.323 260.808 529.457 261.369 528.426 261.774C527.394 262.17 526.235 262.368 524.948 262.368Z" fill="black"/>
<defs>
<clipPath id="paint0_diamond_3_2_clip_path"><path d="M36.775 208.009H24.5986L51.9584 131.981H65.2114L92.5712 208.009H80.3948L58.9005 145.791H58.3065L36.775 208.009ZM38.8168 178.237H78.3159V187.889H38.8168V178.237ZM103.55 208.009V131.981H115.021V198.135H149.472V208.009H103.55ZM251.589 131.981V208.009H241.046L202.4 152.25H201.695V208.009H190.224V131.981H200.841L239.523 187.814H240.229V131.981H251.589ZM274.744 208.009H262.568L289.927 131.981H303.18L330.54 208.009H318.364L296.87 145.791H296.276L274.744 208.009ZM276.786 178.237H316.285V187.889H276.786V178.237ZM366.132 208.009H341.519V131.981H366.912C374.361 131.981 380.759 133.503 386.104 136.547C391.45 139.567 395.546 143.91 398.392 149.578C401.263 155.22 402.699 161.989 402.699 169.884C402.699 177.804 401.251 184.609 398.355 190.302C395.484 195.994 391.326 200.374 385.882 203.443C380.437 206.487 373.854 208.009 366.132 208.009ZM352.991 197.986H365.501C371.292 197.986 376.106 196.897 379.942 194.719C383.778 192.517 386.649 189.336 388.555 185.179C390.46 180.996 391.413 175.898 391.413 169.884C391.413 163.919 390.46 158.858 388.555 154.701C386.674 150.543 383.865 147.387 380.128 145.234C376.391 143.081 371.75 142.004 366.206 142.004H352.991V197.986ZM446.513 131.981H457.947V185.884C457.947 190.76 456.982 194.93 455.052 198.395C453.146 201.859 450.461 204.508 446.996 206.339C443.531 208.146 439.472 209.049 434.819 209.049C430.538 209.049 426.689 208.269 423.274 206.71C419.883 205.151 417.198 202.886 415.218 199.917C413.263 196.922 412.286 193.284 412.286 189.002H423.682C423.682 191.106 424.165 192.925 425.13 194.459C426.12 195.994 427.469 197.194 429.177 198.06C430.909 198.902 432.889 199.323 435.116 199.323C437.542 199.323 439.596 198.815 441.279 197.801C442.987 196.761 444.286 195.239 445.177 193.234C446.068 191.23 446.513 188.78 446.513 185.884V131.981ZM481.066 208.009H468.889L496.249 131.981H509.502L536.862 208.009H524.685L503.191 145.791H502.597L481.066 208.009ZM483.107 178.237H522.606V187.889H483.107V178.237ZM547.841 208.009V131.981H559.312V165.021H597.215V131.981H608.723V208.009H597.215V174.858H559.312V208.009H547.841Z"/></clipPath><linearGradient id="paint0_diamond_3_2" x1="0" y1="0" x2="500" y2="500" gradientUnits="userSpaceOnUse">
<stop offset="0.288462" stop-color="#000F30"/>
<stop offset="1" stop-color="#0666A7"/>
</linearGradient>
</defs>
</svg>
